<?xml version="1.0" encoding="UTF-8"?>
<svg width="512px" height="512px" viewBox="0 0 512 512" version="1.1" xmlns="http://www.w3.org/2000/svg" xmlns:xlink="http://www.w3.org/1999/xlink">
    <title>Favicon@3x</title>
    <g id="Favicon" stroke="none" stroke-width="1" fill="none" fill-rule="evenodd">
        <rect id="Rectangle" fill="#FFFFFF" opacity="0" x="0" y="0" width="512" height="512"></rect>
        <g id="Fav-Icon" transform="translate(0.000000, 125.000000)">
            <polygon id="Orange" fill="#F58220" points="280.266914 0 225.138389 263 456.008667 263 511.138389 0"></polygon>
            <polygon id="Blue" fill="#20419A" points="55.2669142 0 0.138388626 263 231.008667 263 286.138389 0"></polygon>
            <path d="M333.931679,209.383358 L362.027372,93.4280358 C362.758651,90.4044992 363.538025,88.4826077 361.965712,88.4826077 C360.394632,88.4826077 351.269051,93.7022496 343.171947,97.2754113 C338.617789,99.1985003 326.166303,103.868517 319.562588,103.868517 C312.958873,103.868517 312.387908,99.7469279 313.719749,94.2530721 L318.378729,75.0185898 C319.910347,68.6973028 322.643088,66.5 328.074042,64.8511248 C332.49255,63.4776609 342.926543,59.3548742 353.936434,54.1352322 C366.723346,48.090554 379.009585,41.4962506 382.439078,39.0223391 C385.86857,36.5496251 389.147613,36 393.234394,36 L420.275712,36 C427.822814,36 431.35836,39.5719642 429.761384,46.1662675 L390.082369,209.931785 C389.016895,214.328786 384.425741,219 379.078644,219 L342.290219,219 C335.687737,219 332.532012,215.153822 333.931679,209.383358 Z" id="1" fill="#FFFFFE"></path>
            <polyline id="A" fill="#FFFFFE" points="63.3184817 211 29.1383886 211 144.010804 50 179.825159 50 219.138389 211 183.324033 211 173.368125 167.090587 113.679957 167.090587 131.322234 141.195928 167.512421 141.195928 153.732726 80.7356434 63.3184817 211"></polyline>
        </g>
    </g>
</svg>